<svg width="9" height="10" viewBox="0 0 9 10" fill="none" xmlns="http://www.w3.org/2000/svg">
<path d="M1.82129 4.56965L0.731765 5.65917C0.284952 6.10599 0.0339355 6.712 0.0339355 7.34388C0.0339355 7.97577 0.284952 8.58178 0.731765 9.02859C1.17858 9.47541 1.78459 9.72642 2.41647 9.72642C3.04836 9.72642 3.65437 9.47541 4.10118 9.02859L5.55282 7.57616C5.82226 7.30669 6.02312 6.97651 6.13855 6.61334C6.25398 6.25017 6.2806 5.86461 6.21619 5.48902C6.15178 5.11344 5.99821 4.75878 5.76837 4.45483C5.53853 4.15087 5.23913 3.90649 4.8953 3.74219L4.42995 4.20754C4.3827 4.25487 4.34161 4.30796 4.30765 4.36557C4.5733 4.44193 4.81443 4.58631 5.00718 4.78443C5.19994 4.98254 5.33765 5.22753 5.4067 5.49518C5.47576 5.76282 5.47377 6.04386 5.40093 6.3105C5.32809 6.57714 5.18692 6.82015 4.99138 7.01552L3.54054 8.46716C3.24252 8.76517 2.83833 8.93259 2.41687 8.93259C1.99541 8.93259 1.59122 8.76517 1.2932 8.46716C0.995187 8.16914 0.827763 7.76494 0.827763 7.34349C0.827763 6.92203 0.995187 6.51783 1.2932 6.21982L1.92293 5.59088C1.83408 5.25793 1.79976 4.91279 1.82129 4.56886V4.56965Z" fill="black"/>
<path d="M3.30751 3.08404C3.03808 3.35351 2.83721 3.68369 2.72178 4.04686C2.60636 4.41003 2.57973 4.79559 2.64414 5.17118C2.70856 5.54676 2.86213 5.90142 3.09197 6.20537C3.32181 6.50933 3.62121 6.75371 3.96504 6.91801L4.58048 6.30178C4.31123 6.22956 4.06574 6.08775 3.86866 5.89059C3.67159 5.69343 3.52988 5.44788 3.45777 5.17861C3.38566 4.90933 3.3857 4.62582 3.45788 4.35656C3.53005 4.0873 3.67183 3.84179 3.86895 3.64468L5.3198 2.19304C5.61781 1.89503 6.02201 1.7276 6.44346 1.7276C6.86492 1.7276 7.26912 1.89503 7.56713 2.19304C7.86515 2.49106 8.03257 2.89525 8.03257 3.31671C8.03257 3.73817 7.86515 4.14237 7.56713 4.44038L6.9374 5.06932C7.02634 5.40284 7.06049 5.74828 7.03905 6.09134L8.12857 5.00182C8.57538 4.55501 8.8264 3.949 8.8264 3.31711C8.8264 2.68522 8.57538 2.07921 8.12857 1.6324C7.68176 1.18559 7.07575 0.93457 6.44386 0.93457C5.81197 0.93457 5.20596 1.18559 4.75915 1.6324L3.30751 3.08404Z" fill="black"/>
</svg>
