<?xml version="1.0" encoding="utf-8"?>
<!-- Generator: Adobe Illustrator 24.2.3, SVG Export Plug-In . SVG Version: 6.00 Build 0)  -->
<svg version="1.1" id="Calque_1" xmlns="http://www.w3.org/2000/svg" xmlns:xlink="http://www.w3.org/1999/xlink" x="0px" y="0px"
	 viewBox="0 0 24 24" style="enable-background:new 0 0 24 24;" xml:space="preserve">
<path d="M12.4,4.1c-0.3-0.1-0.7-0.1-1,0.1L6.7,8H3C2.4,8,2,8.4,2,9v6c0,0.6,0.4,1,1,1h3.7l4.7,3.8c0.2,0.1,0.4,0.2,0.6,0.2
	c0.1,0,0.3,0,0.4-0.1c0.3-0.2,0.6-0.5,0.6-0.9V5C13,4.6,12.8,4.3,12.4,4.1z M11,16.9l-3.4-2.7C7.4,14.1,7.2,14,7,14H4v-4h3
	c0.2,0,0.4-0.1,0.6-0.2L11,7.1V16.9z"/>
</svg>
